<mxfile host="app.diagrams.net" modified="2020-08-20T12:28:16.069Z" agent="5.0 (Macintosh; Intel Mac OS X 10_15_6) AppleWebKit/537.36 (KHTML, like Gecko) Chrome/84.0.4147.125 Safari/537.36" etag="177kF-40jli3J5QgzHx5" version="13.6.3" type="github">
  <diagram id="8vJNqWevXofVlPsSjhLf" name="Page-1">
    <mxGraphModel dx="1231" dy="691" grid="1" gridSize="10" guides="1" tooltips="1" connect="1" arrows="1" fold="1" page="1" pageScale="1" pageWidth="827" pageHeight="1169" math="0" shadow="0">
      <root>
        <mxCell id="0" />
        <mxCell id="1" parent="0" />
        <mxCell id="X6f416RZbJ_UCcdr4b9p-79" value="" style="rounded=0;whiteSpace=wrap;html=1;" vertex="1" parent="1">
          <mxGeometry x="4" y="10" width="416" height="302" as="geometry" />
        </mxCell>
        <mxCell id="X6f416RZbJ_UCcdr4b9p-80" value="" style="rounded=0;whiteSpace=wrap;html=1;" vertex="1" parent="1">
          <mxGeometry x="449.5" y="10" width="117" height="302" as="geometry" />
        </mxCell>
        <mxCell id="X6f416RZbJ_UCcdr4b9p-40" value="" style="rounded=0;whiteSpace=wrap;html=1;" vertex="1" parent="1">
          <mxGeometry x="4" y="600" width="816" height="80" as="geometry" />
        </mxCell>
        <mxCell id="X6f416RZbJ_UCcdr4b9p-22" value="" style="rounded=0;whiteSpace=wrap;html=1;" vertex="1" parent="1">
          <mxGeometry x="4" y="370" width="816" height="220" as="geometry" />
        </mxCell>
        <mxCell id="X6f416RZbJ_UCcdr4b9p-30" style="rounded=0;orthogonalLoop=1;jettySize=auto;html=1;exitX=1;exitY=0.5;exitDx=0;exitDy=0;entryX=0;entryY=0.25;entryDx=0;entryDy=0;fillColor=#CCCCCC;" edge="1" parent="1" source="X6f416RZbJ_UCcdr4b9p-1" target="X6f416RZbJ_UCcdr4b9p-28">
          <mxGeometry relative="1" as="geometry" />
        </mxCell>
        <mxCell id="X6f416RZbJ_UCcdr4b9p-1" value="基础运行元数据" style="rounded=0;whiteSpace=wrap;html=1;fillColor=#CCCCCC;" vertex="1" parent="1">
          <mxGeometry x="13" y="405" width="120" height="60" as="geometry" />
        </mxCell>
        <mxCell id="X6f416RZbJ_UCcdr4b9p-31" style="rounded=0;orthogonalLoop=1;jettySize=auto;html=1;exitX=1;exitY=0.5;exitDx=0;exitDy=0;entryX=0;entryY=0.75;entryDx=0;entryDy=0;fillColor=#CCCCCC;" edge="1" parent="1" source="X6f416RZbJ_UCcdr4b9p-2" target="X6f416RZbJ_UCcdr4b9p-28">
          <mxGeometry relative="1" as="geometry" />
        </mxCell>
        <mxCell id="X6f416RZbJ_UCcdr4b9p-2" value="Trace日志" style="rounded=0;whiteSpace=wrap;html=1;fillColor=#CCCCCC;" vertex="1" parent="1">
          <mxGeometry x="13" y="495" width="120" height="60" as="geometry" />
        </mxCell>
        <mxCell id="X6f416RZbJ_UCcdr4b9p-3" value="业务场景表" style="rounded=0;whiteSpace=wrap;html=1;fillColor=#CCCCCC;" vertex="1" parent="1">
          <mxGeometry x="243" y="450" width="120" height="60" as="geometry" />
        </mxCell>
        <mxCell id="X6f416RZbJ_UCcdr4b9p-19" style="rounded=0;orthogonalLoop=1;jettySize=auto;html=1;exitX=0.5;exitY=0;exitDx=0;exitDy=0;entryX=0.5;entryY=1;entryDx=0;entryDy=0;fillColor=#CCCCCC;" edge="1" parent="1" source="X6f416RZbJ_UCcdr4b9p-4" target="X6f416RZbJ_UCcdr4b9p-18">
          <mxGeometry relative="1" as="geometry" />
        </mxCell>
        <mxCell id="X6f416RZbJ_UCcdr4b9p-4" value="场景实体" style="rounded=0;whiteSpace=wrap;html=1;fillColor=#CCCCCC;" vertex="1" parent="1">
          <mxGeometry x="473" y="450" width="120" height="60" as="geometry" />
        </mxCell>
        <mxCell id="X6f416RZbJ_UCcdr4b9p-5" value="场景边" style="rounded=0;whiteSpace=wrap;html=1;fillColor=#CCCCCC;" vertex="1" parent="1">
          <mxGeometry x="473" y="520" width="120" height="60" as="geometry" />
        </mxCell>
        <mxCell id="X6f416RZbJ_UCcdr4b9p-14" value="influence result" style="rounded=0;whiteSpace=wrap;html=1;fillColor=#CCCCCC;" vertex="1" parent="1">
          <mxGeometry x="693" y="450" width="120" height="60" as="geometry" />
        </mxCell>
        <mxCell id="X6f416RZbJ_UCcdr4b9p-18" value="运行指标" style="rounded=0;whiteSpace=wrap;html=1;fillColor=#CCCCCC;" vertex="1" parent="1">
          <mxGeometry x="473" y="380" width="120" height="60" as="geometry" />
        </mxCell>
        <mxCell id="X6f416RZbJ_UCcdr4b9p-23" value="自动影响面模型" style="text;html=1;align=center;verticalAlign=middle;resizable=0;points=[];autosize=1;" vertex="1" parent="1">
          <mxGeometry x="363" y="380" width="100" height="20" as="geometry" />
        </mxCell>
        <mxCell id="X6f416RZbJ_UCcdr4b9p-95" style="edgeStyle=orthogonalEdgeStyle;curved=1;rounded=0;orthogonalLoop=1;jettySize=auto;html=1;exitX=0.5;exitY=0;exitDx=0;exitDy=0;fillColor=#CCCCCC;entryX=0.5;entryY=1;entryDx=0;entryDy=0;" edge="1" parent="1" source="X6f416RZbJ_UCcdr4b9p-27" target="X6f416RZbJ_UCcdr4b9p-76">
          <mxGeometry relative="1" as="geometry">
            <mxPoint x="690" y="250" as="targetPoint" />
          </mxGeometry>
        </mxCell>
        <mxCell id="X6f416RZbJ_UCcdr4b9p-27" value="&lt;span&gt;影响面规则&lt;/span&gt;" style="shape=hexagon;perimeter=hexagonPerimeter2;whiteSpace=wrap;html=1;fixedSize=1;fillColor=#E6E6E6;" vertex="1" parent="1">
          <mxGeometry x="593" y="460" width="100" height="40" as="geometry" />
        </mxCell>
        <mxCell id="X6f416RZbJ_UCcdr4b9p-93" style="edgeStyle=orthogonalEdgeStyle;curved=1;rounded=0;orthogonalLoop=1;jettySize=auto;html=1;exitX=0.5;exitY=0;exitDx=0;exitDy=0;entryX=0.5;entryY=1;entryDx=0;entryDy=0;fillColor=#CCCCCC;" edge="1" parent="1" source="X6f416RZbJ_UCcdr4b9p-28" target="X6f416RZbJ_UCcdr4b9p-79">
          <mxGeometry relative="1" as="geometry" />
        </mxCell>
        <mxCell id="X6f416RZbJ_UCcdr4b9p-28" value="&lt;span style=&quot;font-family: &amp;#34;helvetica&amp;#34;&quot;&gt;ETL模型&lt;/span&gt;" style="shape=hexagon;perimeter=hexagonPerimeter2;whiteSpace=wrap;html=1;fixedSize=1;fillColor=#E6E6E6;" vertex="1" parent="1">
          <mxGeometry x="143" y="460" width="100" height="40" as="geometry" />
        </mxCell>
        <mxCell id="X6f416RZbJ_UCcdr4b9p-32" style="edgeStyle=none;rounded=0;orthogonalLoop=1;jettySize=auto;html=1;exitX=1;exitY=0.5;exitDx=0;exitDy=0;entryX=0;entryY=0.5;entryDx=0;entryDy=0;fillColor=#CCCCCC;" edge="1" parent="1" source="X6f416RZbJ_UCcdr4b9p-29" target="X6f416RZbJ_UCcdr4b9p-4">
          <mxGeometry relative="1" as="geometry" />
        </mxCell>
        <mxCell id="X6f416RZbJ_UCcdr4b9p-33" style="edgeStyle=none;rounded=0;orthogonalLoop=1;jettySize=auto;html=1;exitX=0.625;exitY=1;exitDx=0;exitDy=0;entryX=0;entryY=0.5;entryDx=0;entryDy=0;fillColor=#CCCCCC;" edge="1" parent="1" source="X6f416RZbJ_UCcdr4b9p-29" target="X6f416RZbJ_UCcdr4b9p-5">
          <mxGeometry relative="1" as="geometry" />
        </mxCell>
        <mxCell id="X6f416RZbJ_UCcdr4b9p-94" style="edgeStyle=orthogonalEdgeStyle;curved=1;rounded=0;orthogonalLoop=1;jettySize=auto;html=1;exitX=0.5;exitY=0;exitDx=0;exitDy=0;entryX=0.5;entryY=1;entryDx=0;entryDy=0;fillColor=#CCCCCC;" edge="1" parent="1" source="X6f416RZbJ_UCcdr4b9p-29" target="X6f416RZbJ_UCcdr4b9p-80">
          <mxGeometry relative="1" as="geometry" />
        </mxCell>
        <mxCell id="X6f416RZbJ_UCcdr4b9p-29" value="元数据映射模型" style="shape=hexagon;perimeter=hexagonPerimeter2;whiteSpace=wrap;html=1;fixedSize=1;fillColor=#E6E6E6;" vertex="1" parent="1">
          <mxGeometry x="363" y="460" width="100" height="40" as="geometry" />
        </mxCell>
        <mxCell id="X6f416RZbJ_UCcdr4b9p-36" value="blink" style="rounded=0;whiteSpace=wrap;html=1;fillColor=#CCCCCC;" vertex="1" parent="1">
          <mxGeometry x="250" y="610" width="120" height="60" as="geometry" />
        </mxCell>
        <mxCell id="X6f416RZbJ_UCcdr4b9p-37" value="antq" style="rounded=0;whiteSpace=wrap;html=1;fillColor=#CCCCCC;" vertex="1" parent="1">
          <mxGeometry x="60" y="610" width="120" height="60" as="geometry" />
        </mxCell>
        <mxCell id="X6f416RZbJ_UCcdr4b9p-38" value="lindorm" style="rounded=0;whiteSpace=wrap;html=1;fillColor=#CCCCCC;" vertex="1" parent="1">
          <mxGeometry x="440" y="610" width="120" height="60" as="geometry" />
        </mxCell>
        <mxCell id="X6f416RZbJ_UCcdr4b9p-41" value="Geabase" style="shape=ext;rounded=1;html=1;whiteSpace=wrap;dashed=1;dashPattern=1 4;fillColor=#CCCCCC;" vertex="1" parent="1">
          <mxGeometry x="640" y="610" width="120" height="60" as="geometry" />
        </mxCell>
        <mxCell id="X6f416RZbJ_UCcdr4b9p-42" value="" style="shape=singleArrow;direction=north;whiteSpace=wrap;html=1;arrowWidth=0.5333333333333333;arrowSize=0.5666666666666667;" vertex="1" parent="1">
          <mxGeometry x="354" y="580" width="120" height="30" as="geometry" />
        </mxCell>
        <mxCell id="X6f416RZbJ_UCcdr4b9p-58" style="edgeStyle=none;rounded=0;orthogonalLoop=1;jettySize=auto;html=1;exitX=1;exitY=0.5;exitDx=0;exitDy=0;fillColor=#E6E6E6;" edge="1" parent="1" source="X6f416RZbJ_UCcdr4b9p-48" target="X6f416RZbJ_UCcdr4b9p-56">
          <mxGeometry relative="1" as="geometry" />
        </mxCell>
        <mxCell id="X6f416RZbJ_UCcdr4b9p-59" style="edgeStyle=none;rounded=0;orthogonalLoop=1;jettySize=auto;html=1;exitX=1;exitY=0.5;exitDx=0;exitDy=0;entryX=0;entryY=0.5;entryDx=0;entryDy=0;fillColor=#E6E6E6;" edge="1" parent="1" source="X6f416RZbJ_UCcdr4b9p-44" target="X6f416RZbJ_UCcdr4b9p-52">
          <mxGeometry relative="1" as="geometry" />
        </mxCell>
        <mxCell id="X6f416RZbJ_UCcdr4b9p-64" style="edgeStyle=none;rounded=0;orthogonalLoop=1;jettySize=auto;html=1;exitX=1;exitY=0.5;exitDx=0;exitDy=0;entryX=0;entryY=0.5;entryDx=0;entryDy=0;fillColor=#E6E6E6;" edge="1" parent="1" source="X6f416RZbJ_UCcdr4b9p-52">
          <mxGeometry relative="1" as="geometry">
            <mxPoint x="324" y="123" as="targetPoint" />
          </mxGeometry>
        </mxCell>
        <mxCell id="X6f416RZbJ_UCcdr4b9p-65" style="edgeStyle=none;rounded=0;orthogonalLoop=1;jettySize=auto;html=1;exitX=1;exitY=0.5;exitDx=0;exitDy=0;entryX=0;entryY=0.75;entryDx=0;entryDy=0;fillColor=#E6E6E6;" edge="1" parent="1" source="X6f416RZbJ_UCcdr4b9p-45" target="X6f416RZbJ_UCcdr4b9p-60">
          <mxGeometry relative="1" as="geometry">
            <mxPoint x="324" y="153" as="targetPoint" />
          </mxGeometry>
        </mxCell>
        <mxCell id="X6f416RZbJ_UCcdr4b9p-70" style="edgeStyle=none;rounded=0;orthogonalLoop=1;jettySize=auto;html=1;exitX=0.5;exitY=1;exitDx=0;exitDy=0;entryX=0.5;entryY=0;entryDx=0;entryDy=0;fillColor=#CCCCCC;" edge="1" parent="1" source="X6f416RZbJ_UCcdr4b9p-66" target="X6f416RZbJ_UCcdr4b9p-67">
          <mxGeometry relative="1" as="geometry" />
        </mxCell>
        <mxCell id="X6f416RZbJ_UCcdr4b9p-71" style="edgeStyle=none;rounded=0;orthogonalLoop=1;jettySize=auto;html=1;exitX=0.5;exitY=1;exitDx=0;exitDy=0;entryX=0.5;entryY=0;entryDx=0;entryDy=0;fillColor=#CCCCCC;" edge="1" parent="1" source="X6f416RZbJ_UCcdr4b9p-67" target="X6f416RZbJ_UCcdr4b9p-68">
          <mxGeometry relative="1" as="geometry" />
        </mxCell>
        <mxCell id="X6f416RZbJ_UCcdr4b9p-72" style="edgeStyle=orthogonalEdgeStyle;rounded=0;orthogonalLoop=1;jettySize=auto;html=1;exitX=0.25;exitY=0;exitDx=0;exitDy=0;curved=1;" edge="1" parent="1" source="X6f416RZbJ_UCcdr4b9p-66">
          <mxGeometry relative="1" as="geometry">
            <mxPoint x="463" y="90" as="targetPoint" />
            <Array as="points">
              <mxPoint x="486" y="40" />
              <mxPoint x="430" y="40" />
              <mxPoint x="430" y="90" />
            </Array>
          </mxGeometry>
        </mxCell>
        <mxCell id="X6f416RZbJ_UCcdr4b9p-74" value="" style="html=1;shadow=0;dashed=0;align=center;verticalAlign=middle;shape=mxgraph.arrows2.arrow;dy=0.46;dx=27;notch=0;" vertex="1" parent="1">
          <mxGeometry x="419" y="138" width="40" height="70" as="geometry" />
        </mxCell>
        <mxCell id="X6f416RZbJ_UCcdr4b9p-81" value="" style="html=1;shadow=0;dashed=0;align=center;verticalAlign=middle;shape=mxgraph.arrows2.arrow;dy=0.46;dx=27;notch=0;" vertex="1" parent="1">
          <mxGeometry x="560" y="135" width="40" height="70" as="geometry" />
        </mxCell>
        <mxCell id="X6f416RZbJ_UCcdr4b9p-83" value="Blink SQL" style="text;html=1;align=center;verticalAlign=middle;resizable=0;points=[];autosize=1;" vertex="1" parent="1">
          <mxGeometry x="13" y="22" width="70" height="20" as="geometry" />
        </mxCell>
        <mxCell id="X6f416RZbJ_UCcdr4b9p-84" value="RMC 数据映射模型" style="text;html=1;align=center;verticalAlign=middle;resizable=0;points=[];autosize=1;" vertex="1" parent="1">
          <mxGeometry x="444.5" y="20" width="120" height="20" as="geometry" />
        </mxCell>
        <mxCell id="X6f416RZbJ_UCcdr4b9p-85" value="RMC 影响面计算模型" style="text;html=1;align=center;verticalAlign=middle;resizable=0;points=[];autosize=1;" vertex="1" parent="1">
          <mxGeometry x="580" y="70" width="130" height="20" as="geometry" />
        </mxCell>
        <mxCell id="X6f416RZbJ_UCcdr4b9p-43" value="调用日志表" style="swimlane;fontStyle=0;childLayout=stackLayout;horizontal=1;startSize=26;horizontalStack=0;resizeParent=1;resizeParentMax=0;resizeLast=0;collapsible=1;marginBottom=0;align=center;fontSize=14;fillColor=#E6E6E6;" vertex="1" parent="1">
          <mxGeometry x="30" y="82" width="90" height="116" as="geometry" />
        </mxCell>
        <mxCell id="X6f416RZbJ_UCcdr4b9p-44" value="结果码" style="text;strokeColor=none;fillColor=#E6E6E6;spacingLeft=4;spacingRight=4;overflow=hidden;rotatable=0;points=[[0,0.5],[1,0.5]];portConstraint=eastwest;fontSize=12;" vertex="1" parent="X6f416RZbJ_UCcdr4b9p-43">
          <mxGeometry y="26" width="90" height="30" as="geometry" />
        </mxCell>
        <mxCell id="X6f416RZbJ_UCcdr4b9p-45" value="耗时" style="text;strokeColor=none;fillColor=#E6E6E6;spacingLeft=4;spacingRight=4;overflow=hidden;rotatable=0;points=[[0,0.5],[1,0.5]];portConstraint=eastwest;fontSize=12;" vertex="1" parent="X6f416RZbJ_UCcdr4b9p-43">
          <mxGeometry y="56" width="90" height="30" as="geometry" />
        </mxCell>
        <mxCell id="X6f416RZbJ_UCcdr4b9p-46" value="接口" style="text;strokeColor=none;fillColor=#E6E6E6;spacingLeft=4;spacingRight=4;overflow=hidden;rotatable=0;points=[[0,0.5],[1,0.5]];portConstraint=eastwest;fontSize=12;" vertex="1" parent="X6f416RZbJ_UCcdr4b9p-43">
          <mxGeometry y="86" width="90" height="30" as="geometry" />
        </mxCell>
        <mxCell id="X6f416RZbJ_UCcdr4b9p-47" value="Pod元数据表" style="swimlane;fontStyle=0;childLayout=stackLayout;horizontal=1;startSize=26;horizontalStack=0;resizeParent=1;resizeParentMax=0;resizeLast=0;collapsible=1;marginBottom=0;align=center;fontSize=14;fillColor=#E6E6E6;" vertex="1" parent="1">
          <mxGeometry x="30" y="212" width="90" height="86" as="geometry" />
        </mxCell>
        <mxCell id="X6f416RZbJ_UCcdr4b9p-48" value="应用" style="text;strokeColor=none;fillColor=#E6E6E6;spacingLeft=4;spacingRight=4;overflow=hidden;rotatable=0;points=[[0,0.5],[1,0.5]];portConstraint=eastwest;fontSize=12;" vertex="1" parent="X6f416RZbJ_UCcdr4b9p-47">
          <mxGeometry y="26" width="90" height="30" as="geometry" />
        </mxCell>
        <mxCell id="X6f416RZbJ_UCcdr4b9p-49" value="IP" style="text;strokeColor=none;fillColor=#E6E6E6;spacingLeft=4;spacingRight=4;overflow=hidden;rotatable=0;points=[[0,0.5],[1,0.5]];portConstraint=eastwest;fontSize=12;" vertex="1" parent="X6f416RZbJ_UCcdr4b9p-47">
          <mxGeometry y="56" width="90" height="30" as="geometry" />
        </mxCell>
        <mxCell id="X6f416RZbJ_UCcdr4b9p-51" value="服务调用" style="swimlane;fontStyle=0;childLayout=stackLayout;horizontal=1;startSize=26;horizontalStack=0;resizeParent=1;resizeParentMax=0;resizeLast=0;collapsible=1;marginBottom=0;align=center;fontSize=14;fillColor=#E6E6E6;" vertex="1" parent="1">
          <mxGeometry x="180" y="22" width="90" height="116" as="geometry" />
        </mxCell>
        <mxCell id="X6f416RZbJ_UCcdr4b9p-52" value="调用次数" style="text;strokeColor=none;fillColor=#E6E6E6;spacingLeft=4;spacingRight=4;overflow=hidden;rotatable=0;points=[[0,0.5],[1,0.5]];portConstraint=eastwest;fontSize=12;" vertex="1" parent="X6f416RZbJ_UCcdr4b9p-51">
          <mxGeometry y="26" width="90" height="30" as="geometry" />
        </mxCell>
        <mxCell id="X6f416RZbJ_UCcdr4b9p-53" value="平均耗时" style="text;strokeColor=none;fillColor=#E6E6E6;spacingLeft=4;spacingRight=4;overflow=hidden;rotatable=0;points=[[0,0.5],[1,0.5]];portConstraint=eastwest;fontSize=12;" vertex="1" parent="X6f416RZbJ_UCcdr4b9p-51">
          <mxGeometry y="56" width="90" height="30" as="geometry" />
        </mxCell>
        <mxCell id="X6f416RZbJ_UCcdr4b9p-54" value="状态码聚合" style="text;strokeColor=none;fillColor=#E6E6E6;spacingLeft=4;spacingRight=4;overflow=hidden;rotatable=0;points=[[0,0.5],[1,0.5]];portConstraint=eastwest;fontSize=12;" vertex="1" parent="X6f416RZbJ_UCcdr4b9p-51">
          <mxGeometry y="86" width="90" height="30" as="geometry" />
        </mxCell>
        <mxCell id="X6f416RZbJ_UCcdr4b9p-60" value="应用启动依赖" style="swimlane;fontStyle=0;childLayout=stackLayout;horizontal=1;startSize=26;horizontalStack=0;resizeParent=1;resizeParentMax=0;resizeLast=0;collapsible=1;marginBottom=0;align=center;fontSize=14;fillColor=#E6E6E6;" vertex="1" parent="1">
          <mxGeometry x="324" y="112" width="90" height="56" as="geometry" />
        </mxCell>
        <mxCell id="X6f416RZbJ_UCcdr4b9p-55" value="Pod聚合表" style="swimlane;fontStyle=0;childLayout=stackLayout;horizontal=1;startSize=26;horizontalStack=0;resizeParent=1;resizeParentMax=0;resizeLast=0;collapsible=1;marginBottom=0;align=center;fontSize=14;fillColor=#E6E6E6;" vertex="1" parent="1">
          <mxGeometry x="180" y="212" width="90" height="86" as="geometry" />
        </mxCell>
        <mxCell id="X6f416RZbJ_UCcdr4b9p-56" value="运行状态" style="text;strokeColor=none;fillColor=#E6E6E6;spacingLeft=4;spacingRight=4;overflow=hidden;rotatable=0;points=[[0,0.5],[1,0.5]];portConstraint=eastwest;fontSize=12;" vertex="1" parent="X6f416RZbJ_UCcdr4b9p-55">
          <mxGeometry y="26" width="90" height="30" as="geometry" />
        </mxCell>
        <mxCell id="X6f416RZbJ_UCcdr4b9p-57" value="数量" style="text;strokeColor=none;fillColor=#E6E6E6;spacingLeft=4;spacingRight=4;overflow=hidden;rotatable=0;points=[[0,0.5],[1,0.5]];portConstraint=eastwest;fontSize=12;" vertex="1" parent="X6f416RZbJ_UCcdr4b9p-55">
          <mxGeometry y="56" width="90" height="30" as="geometry" />
        </mxCell>
        <mxCell id="X6f416RZbJ_UCcdr4b9p-75" value="影响面规则" style="swimlane;childLayout=stackLayout;horizontal=1;startSize=30;horizontalStack=0;rounded=1;fontSize=14;fontStyle=0;strokeWidth=2;resizeParent=0;resizeLast=1;shadow=0;dashed=0;align=center;" vertex="1" parent="1">
          <mxGeometry x="593" y="111.25" width="200" height="123.5" as="geometry" />
        </mxCell>
        <mxCell id="X6f416RZbJ_UCcdr4b9p-76" value="+场景系数计算-指标相关性计算&#xa;+场景系数计算-流量分布计算&#xa;+场景系数计算-强弱依赖计算&#xa;+传递系数规则&#xa;+剪枝规则" style="align=left;strokeColor=none;fillColor=none;spacingLeft=4;fontSize=12;verticalAlign=top;resizable=0;rotatable=0;part=1;" vertex="1" parent="X6f416RZbJ_UCcdr4b9p-75">
          <mxGeometry y="30" width="200" height="93.5" as="geometry" />
        </mxCell>
        <mxCell id="X6f416RZbJ_UCcdr4b9p-68" value="Pod" style="swimlane;fontStyle=0;childLayout=stackLayout;horizontal=1;startSize=26;horizontalStack=0;resizeParent=1;resizeParentMax=0;resizeLast=0;collapsible=1;marginBottom=0;align=center;fontSize=14;fillColor=#CCCCCC;" vertex="1" parent="1">
          <mxGeometry x="463" y="250" width="90" height="56" as="geometry" />
        </mxCell>
        <mxCell id="X6f416RZbJ_UCcdr4b9p-66" value="Service" style="swimlane;fontStyle=0;childLayout=stackLayout;horizontal=1;startSize=26;horizontalStack=0;resizeParent=1;resizeParentMax=0;resizeLast=0;collapsible=1;marginBottom=0;align=center;fontSize=14;fillColor=#CCCCCC;" vertex="1" parent="1">
          <mxGeometry x="463" y="82" width="90" height="56" as="geometry" />
        </mxCell>
        <mxCell id="X6f416RZbJ_UCcdr4b9p-67" value="App" style="swimlane;fontStyle=0;childLayout=stackLayout;horizontal=1;startSize=26;horizontalStack=0;resizeParent=1;resizeParentMax=0;resizeLast=0;collapsible=1;marginBottom=0;align=center;fontSize=14;fillColor=#CCCCCC;" vertex="1" parent="1">
          <mxGeometry x="463" y="168" width="90" height="56" as="geometry" />
        </mxCell>
      </root>
    </mxGraphModel>
  </diagram>
</mxfile>
